#!OML:ASF I:\Actors\actors\Patient Classification 2\Patient 1\Session 1\actor1.ASF
:FULLY-SPECIFIED
:DEGREES
478
root -0.497855 18.9569 5.35522 17.7545 1.3685 0.138661
lowerback 25.962 0.202706 -2.58091
upperback 0.270465 -0.972912 -3.1499
thorax -14.3307 -0.404132 -1.78519
lowerneck -13.0187 -3.43621 -6.55375
upperneck -25.1866 -3.68213 2.85938
head -5.4618 -1.341 2.04911
rclavicle 1.19271e-015 -4.77083e-015
rhumerus -45.6012 12.3201 -95.0434
rradius 119.381
rwrist 4.91903
rhand -8.21454 -48.2888
rfingers 7.12502
rthumb 17.7024 -77.503
lclavicle 1.19271e-015 -4.77083e-015
lhumerus -38.2023 -21.7359 95.6556
lradius 111.964
lwrist -14.8203
lhand 31.8591 -7.0983
lfingers 7.12502
lthumb 55.3702 10.7692
rfemur -13.1419 4.94697 10.967
rtibia 2.60145
rfoot -16.1308 -17.169
rtoes -10.4198
lfemur -30.0719 2.45557 -14.2801
ltibia 29.3197
lfoot -12.0217 5.34732
ltoes -57.9441
479
root -0.499781 18.9022 5.31395 17.6916 1.81585 0.364268
lowerback 26.427 0.439874 -2.57301
upperback 0.376808 -0.671259 -3.10975
thorax -14.4579 -0.267469 -1.86118
lowerneck -13.9432 -2.69376 -5.38982
upperneck -24.5618 -2.80368 2.03952
head -5.19207 -0.966504 1.56635
rclavicle 1.82882e-014 -5.56597e-015
rhumerus -45.6277 11.9076 -93.6086
rradius 119.76
rwrist 2.93883
rhand -8.54836 -48.728
rfingers 7.12502
rthumb 17.3811 -77.9708
lclavicle 1.82882e-014 -5.56597e-015
lhumerus -36.6859 -23.253 96.7221
lradius 111.22
lwrist -16.9282
lhand 31.7718 -7.16601
lfingers 7.12502
lthumb 55.2924 10.759
rfemur -14.8432 4.60364 10.9146
rtibia 6.21085
rfoot -18.1818 -15.9506
rtoes -10.7912
lfemur -30.4187 2.35859 -14.6115
ltibia 29.6777
lfoot -12.7769 5.41406
ltoes -58.2966
480
root -0.488821 18.8392 5.27703 17.7838 2.06701 0.355405
lowerback 26.4276 0.643104 -2.35877
upperback 0.431797 -0.320556 -2.99338
thorax -14.3864 -0.120721 -1.98149
lowerneck -14.2486 -2.32575 -4.61395
upperneck -23.6644 -2.35405 1.91585
head -4.88009 -0.815045 1.3823
rclavicle 1.43125e-014 2.14687e-014
rhumerus -45.1656 11.6386 -92.2946
rradius 119.551
rwrist 1.67508
rhand -8.42022 -49.554
rfingers 7.12502
rthumb 17.5045 -78.7859
lclavicle 1.43125e-014 2.14687e-014
lhumerus -35.5621 -24.37 97.9809
lradius 110.567
lwrist -18.6783
lhand 31.0396 -7.47884
lfingers 7.12502
lthumb 54.6391 10.9177
rfemur -16.3256 4.48188 10.9749
rtibia 8.82543
rfoot -19.747 -15.2628
rtoes -11.5632
lfemur -30.8824 2.37304 -14.791
ltibia 30.0292
lfoot -14.0356 5.5223
ltoes -58.2411
481
root -0.46291 18.7814 5.23427 18.0962 2.3948 0.24394
lowerback 26.0648 0.635197 -1.84526
upperback 0.467052 -0.134324 -2.82749
thorax -14.1381 -0.0648598 -2.14703
lowerneck -14.0781 -2.20664 -4.08272
upperneck -22.6575 -2.2119 2.1449
head -4.58471 -0.814568 1.35661
rclavicle -9.14409e-015 7.15625e-015
rhumerus -44.0675 11.6076 -91.337
rradius 118.906
rwrist 1.62543
rhand -8.11543 -50.739
rfingers 7.12502
rthumb 17.7978 -79.9445
lclavicle -9.14409e-015 7.15625e-015
lhumerus -34.6286 -24.9032 99.2276
lradius 109.956
lwrist -19.7843
lhand 30.0141 -7.99247
lfingers 7.12502
lthumb 53.7197 11.0333
rfemur -17.9936 4.25086 11.0458
rtibia 11.2154
rfoot -20.9526 -14.736
rtoes -11.9715
lfemur -31.6384 1.9411 -14.7887
ltibia 30.4016
lfoot -15.3434 5.84052
ltoes -57.9357
482
root -0.438957 18.7409 5.1802 18.4373 3.33086 0.314164
lowerback 25.8476 0.277958 -1.19413
upperback 0.5104 -0.364401 -2.6071
thorax -13.9719 -0.201102 -2.17712
lowerneck -13.6941 -2.22869 -3.90862
upperneck -21.5289 -2.20652 2.67205
head -4.2731 -0.86571 1.48467
rclavicle 3.18055e-015 -7.95139e-016
rhumerus -42.4928 11.6233 -90.8915
rradius 118.058
rwrist 3.16179
rhand -7.52655 -51.6867
rfingers 7.12502
rthumb 18.3643 -80.8399
lclavicle 3.18055e-015 -7.95139e-016
lhumerus -33.8378 -24.9812 100.411
lradius 109.397
lwrist -20.3017
lhand 28.8669 -8.44998
lfingers 7.12502
lthumb 52.6854 11.2396
rfemur -19.4063 3.41435 11.0942
rtibia 13.3009
rfoot -21.7336 -14.3204
rtoes -12.0547
lfemur -32.6006 0.775238 -14.7165
ltibia 30.8046
lfoot -15.904 6.2807
ltoes -57.7053
483
root -0.427579 18.7173 5.13448 18.9655 3.92881 0.323144
lowerback 25.3136 0.0528193 -0.850956
upperback 0.519006 -0.507609 -2.36217
thorax -13.6682 -0.275704 -2.03238
lowerneck -13.571 -2.34662 -4.05451
upperneck -19.5698 -2.30315 3.29274
head -4.1231 -0.93507 1.80198
rclavicle 9.93923e-015 -2.94201e-014
rhumerus -40.8226 11.375 -90.8621
rradius 117.252
rwrist 6.23787
rhand -5.91696 -52.177
rfingers 7.12502
rthumb 19.9122 -81.1769
lclavicle 9.93923e-015 -2.94201e-014
lhumerus -33.3736 -24.8293 101.46
lradius 109
lwrist -20.2597
lhand 27.6557 -9.13945
lfingers 7.12502
lthumb 51.5874 11.2081
rfemur -20.908 2.62752 11.1814
rtibia 15.0462
rfoot -21.8795 -13.8848
rtoes -12.5013
lfemur -33.7042 0.0978253 -14.5714
ltibia 31.2185
lfoot -15.9075 6.56305
ltoes -57.705
